<svg id="Layer_1" data-name="Layer 1" xmlns="http://www.w3.org/2000/svg" viewBox="0 0 38.287 37.605"><path d="M4.291,15.011a13.26,13.26,0,0,0-.471,3.448V18.7a17.751,17.751,0,0,1-.47,4.184,4.415,4.415,0,0,1-1.956-1.506c-1.679-2.127-1.121-5.538.95-6.341A2.62,2.62,0,0,1,4.294,15Z" style="fill:#a16552"/><path d="M4.291,15.011a13.26,13.26,0,0,0-.471,3.448V18.7a17.751,17.751,0,0,1-.47,4.184,4.415,4.415,0,0,1-1.956-1.506c-1.679-2.127-1.121-5.538.95-6.341A2.62,2.62,0,0,1,4.294,15Z" style="fill:#f5dcb4"/><path d="M35.228,21.38a4.442,4.442,0,0,1-1.955,1.506A17.8,17.8,0,0,1,32.8,18.7v-.242A13.181,13.181,0,0,0,32.327,15a2.62,2.62,0,0,1,1.95.04C36.348,15.841,36.907,19.252,35.228,21.38Z" style="fill:#a16552"/><path d="M35.228,21.38a4.442,4.442,0,0,1-1.955,1.506A17.8,17.8,0,0,1,32.8,18.7v-.242A13.181,13.181,0,0,0,32.327,15a2.62,2.62,0,0,1,1.95.04C36.348,15.841,36.907,19.252,35.228,21.38Z" style="fill:#f5dcb4"/><path d="M28.777,22.928a3.752,3.752,0,0,0-.413,3.217,8.4,8.4,0,0,1,.523,2.413c0,5-4.735,9.047-10.576,9.047S7.734,33.558,7.734,28.558a8.4,8.4,0,0,1,.522-2.413,3.745,3.745,0,0,0-.411-3.216A5.817,5.817,0,0,1,6.93,19.81,6.165,6.165,0,0,1,13.241,13.8a6.532,6.532,0,0,1,3.214.838,3.752,3.752,0,0,0,3.712,0A6.516,6.516,0,0,1,23.38,13.8a6.169,6.169,0,0,1,6.312,6.009,5.807,5.807,0,0,1-.915,3.117Z" style="fill:#a16552"/><path d="M28.777,22.928a3.752,3.752,0,0,0-.413,3.217,8.4,8.4,0,0,1,.523,2.413c0,5-4.735,9.047-10.576,9.047S7.734,33.558,7.734,28.558a8.4,8.4,0,0,1,.522-2.413,3.745,3.745,0,0,0-.411-3.216A5.817,5.817,0,0,1,6.93,19.81,6.165,6.165,0,0,1,13.241,13.8a6.532,6.532,0,0,1,3.214.838,3.752,3.752,0,0,0,3.712,0A6.516,6.516,0,0,1,23.38,13.8a6.169,6.169,0,0,1,6.312,6.009,5.807,5.807,0,0,1-.915,3.117Z" style="fill:#f5dcb4"/><path d="M12.924,29.676a.608.608,0,0,0-.609.606.7.7,0,0,0,.005.08,5.863,5.863,0,0,0,5.991,4.749,5.859,5.859,0,0,0,5.99-4.749.607.607,0,0,0-.522-.681.716.716,0,0,0-.08-.005Z" style="fill:#4e3f3f"/><path d="M14.831,34.114a6.572,6.572,0,0,0,6.959,0c-.436-1.512-1.832-1.163-3.482-1.163S15.268,32.6,14.831,34.114Z" style="fill:#e6646e"/><path d="M35.826,12.552a3.28,3.28,0,0,0-2.943.172,15.388,15.388,0,0,0-.588-1.477c-.162-.353-.337-.7-.524-1.044a16.3,16.3,0,0,0-8.829-7.641L22.866.572,20.474,2.008l-.288-.032c-.177-.016-.352-.028-.531-.035L19.306.435,19.2,0a3.105,3.105,0,0,0-.35.013,4.621,4.621,0,0,0-3.507,2.55A16.288,16.288,0,0,0,6.517,10.2q-.282.515-.524,1.044A15.661,15.661,0,0,0,5.4,12.724l-.09-.05a3.287,3.287,0,0,0-2.852-.122c-2.631,1.02-3.341,5.355-1.209,8.06a5.511,5.511,0,0,0,2.666,1.97c-.012.049-.023.1-.033.148a10.282,10.282,0,0,0-.238,2.211c0,5.161,3.806,9.6,9.259,11.551a18,18,0,0,0,3.958.929,19.112,19.112,0,0,0,2.112.132h.168c8.558,0,15.5-5.647,15.5-12.612a10.293,10.293,0,0,0-.238-2.213c-.011-.049-.021-.1-.034-.148a5.479,5.479,0,0,0,2.666-1.971C39.167,17.907,38.456,13.571,35.826,12.552Zm-30.7,1.089a13.224,13.224,0,0,0-.47,3.449v.242a17.8,17.8,0,0,1-.471,4.183,4.405,4.405,0,0,1-1.956-1.506c-1.679-2.127-1.121-5.537.95-6.34a2.626,2.626,0,0,1,1.95-.041ZM30,20.842a5.78,5.78,0,0,1-.39.717,3.747,3.747,0,0,0-.412,3.217,8.418,8.418,0,0,1,.522,2.413c0,5-4.735,9.046-10.576,9.046S8.567,32.188,8.567,27.189a8.432,8.432,0,0,1,.522-2.413,3.745,3.745,0,0,0-.411-3.216,5.827,5.827,0,0,1-.915-3.12,6.165,6.165,0,0,1,6.311-6.008,6.518,6.518,0,0,1,3.214.838,3.757,3.757,0,0,0,3.712,0,6.516,6.516,0,0,1,3.213-.837,6.168,6.168,0,0,1,6.312,6.008A5.719,5.719,0,0,1,30,20.842Zm6.062-.832a4.435,4.435,0,0,1-1.956,1.506,17.782,17.782,0,0,1-.471-4.182v-.242a13.194,13.194,0,0,0-.475-3.462,2.626,2.626,0,0,1,1.95.041C37.181,14.472,37.74,17.882,36.062,20.01Z" style="fill:#a16552"/><rect x="16.219" y="24.494" width="1.016" height="2.308" rx="0.493" transform="translate(-13.552 30.207) rotate(-65.45)" style="fill:#4e3f3f"/><rect x="18.74" y="25.141" width="2.308" height="1.016" rx="0.493" transform="translate(-8.859 10.585) rotate(-24.55)" style="fill:#4e3f3f"/><path d="M12.876,22.21h0a1.766,1.766,0,0,1-1.811-1.717v-.572A1.766,1.766,0,0,1,12.876,18.2h0a1.766,1.766,0,0,1,1.811,1.717v.572A1.765,1.765,0,0,1,12.876,22.21Z" style="fill:#4e3f3f"/><path d="M12.876,18.2v2a.906.906,0,0,0,1.811,0v-.282A1.764,1.764,0,0,0,12.876,18.2Z" style="fill:#5d5360"/><ellipse cx="12.876" cy="19.349" rx="0.604" ry="0.572" style="fill:#fff"/><path d="M23.745,22.21h0a1.766,1.766,0,0,1-1.811-1.717v-.572A1.766,1.766,0,0,1,23.745,18.2h0a1.766,1.766,0,0,1,1.812,1.717v.572A1.767,1.767,0,0,1,23.745,22.21Z" style="fill:#4e3f3f"/><path d="M23.745,18.2v2a.907.907,0,0,0,1.812,0v-.282A1.766,1.766,0,0,0,23.745,18.2Z" style="fill:#5d5360"/><ellipse cx="23.745" cy="19.349" rx="0.604" ry="0.572" style="fill:#fff"/></svg>